<svg xmlns="http://www.w3.org/2000/svg" xmlns:xlink="http://www.w3.org/1999/xlink" fill="white" width="134" height="41" viewBox="0 0 134 41"><defs><path id="szs5a" d="M653 119.01h58.92v41.1H653z"/><path id="szs5c" d="M686.25 160.1c-.52-.08-1.06-.12-1.58-.2-2.97-.5-5.8-1.45-8.46-2.84a33.15 33.15 0 0 1-10.81-9.13 1.1 1.1 0 0 0-.74-.43 13.7 13.7 0 0 1-7.86-4 13.62 13.62 0 0 1-3.8-8.75v-2.95c.2-.9.26-1.8.5-2.68.82-2.9 2.42-5.31 4.83-7.17a14.15 14.15 0 0 1 7.71-2.88c3.5-.28 6.74.44 9.65 2.38 2.66 1.76 4.4 4.2 5.36 7.21.57 1.81.78 3.67.68 5.55-.2 3.6-1.47 6.8-4.06 9.4a13.3 13.3 0 0 1-6.63 3.66c-.51.12-1.06.08-1.59.12-.15 0-.3.02-.54.04.12.16.19.26.27.34a27.8 27.8 0 0 0 12.32 7.95 21.82 21.82 0 0 0 10.01.8c5.89-.95 10.9-3.43 14.15-8.35 2.51-3.8 3-7.92 3.07-12.45.02-1.2.1-3.06.01-4.27-.04-.58-.05-1.17-.1-1.76-.02-.32.16-.34.6-.27.66.1 1.32.1 1.97 0 .41-.06.61-.06.62.24.05 1.55.07 3.1.09 4.65l-.03 1.42c-.12 2.5-.21 3.95-.49 5.8a22.77 22.77 0 0 1-2.6 7.95c-2.38 4.02-6.07 6.6-10.33 8.62-1.68.8-3.45 1.39-5.3 1.69-.71.12-1.42.2-2.13.32m-23.6-37.96c-.88.13-1.77.2-2.64.38a9.73 9.73 0 0 0-6.26 4.23 11.53 11.53 0 0 0-1.28 10.6c1.9 5.49 7.46 8.27 13.07 6.77 3.93-1.06 6.31-3.73 7.36-7.57.55-2.04.55-4.1.03-6.17-.64-2.57-2-4.69-4.2-6.24a11.23 11.23 0 0 0-6.08-2"/><path id="szs5d" d="M765.73 142.3l.55 1.26c.13.29.22.6.37.88.12.22.05.35-.14.5a9.82 9.82 0 0 1-3.51 1.65c-1.93.5-3.88.55-5.82.13-3.33-.72-5.66-2.53-6.67-5.64-.8-2.46-.68-4.9.44-7.26a7.9 7.9 0 0 1 4.79-4.2c2.2-.74 4.45-.85 6.68-.16a7.56 7.56 0 0 1 5.06 4.53c.6 1.48.6 3 .42 4.53-.03.32-.18.43-.53.43l-13.15-.01h-.47c.03.72.2 1.35.5 1.96.89 1.84 2.48 2.78 4.55 3.08a9.6 9.6 0 0 0 6.36-1.27l.57-.42m-12.17-5.84l.43.02h10.15c.06 0 .14.02.18 0 .1-.08.25-.18.24-.26a4.69 4.69 0 0 0-.15-.93 4.14 4.14 0 0 0-2.1-2.66 6.6 6.6 0 0 0-4.6-.52 5.17 5.17 0 0 0-3.42 2.3c-.4.62-.67 1.28-.73 2.05"/><path id="szs5e" d="M700.65 145.2c-.5.42-.9.8-1.34 1.1a9.14 9.14 0 0 1-6.7 1.6 5.84 5.84 0 0 1-4.8-3.3 8.03 8.03 0 0 1-.8-3.49c-.02-3.56 0-7.12-.01-10.69 0-.34.12-.42.46-.42.8.02 1.6.01 2.4.01.51 0 .51 0 .51.47v8.78c0 .94.04 1.89.32 2.81.55 1.8 1.84 2.74 3.8 2.92 2.47.22 4.4-.76 6-2.44.12-.12.16-.35.16-.53v-11.55c0-.35.07-.48.48-.47.82.03 1.65.02 2.47 0 .29 0 .4.06.4.36v16.88c0 .26-.06.36-.36.36-.87-.02-1.75-.02-2.62 0-.3 0-.38-.09-.37-.35.02-.66 0-1.31 0-2.04"/><path id="szs5f" d="M786.61 130.04l-1.98 2.72c-1.39 1.9-2.77 3.8-4.16 5.67-.17.24-.08.37.04.54l6.27 8.66.22.33c-.14.02-.22.04-.31.04l-3.27-.01a.67.67 0 0 1-.46-.25c-1.6-2.2-3.18-4.42-4.76-6.63l-.26-.33-.77 1.05-4.29 5.9c-.1.12-.3.25-.46.26-1.05.02-2.1 0-3.16 0l-.26-.03 1.25-1.71c1.72-2.36 3.45-4.73 5.2-7.08.2-.28.15-.44-.03-.7-1.96-2.72-3.9-5.45-5.85-8.19l-.14-.24.31-.03 3.23-.01c.23 0 .38.07.51.26l4.33 6.13c.25.35.26.35.52 0l4.39-6.1c.1-.13.3-.27.45-.27 1.05-.03 2.1-.02 3.16-.01l.28.03"/><path id="szs5g" d="M730.5 141.87c.52.72 1.01 1.4 1.49 2.1.04.07-.03.25-.1.33a7.59 7.59 0 0 1-3.44 2.14c-2.4.76-4.84.74-7.23 0-3.1-.98-5.1-2.95-5.87-5.9a8.93 8.93 0 0 1 6.72-11.24c2.71-.57 5.38-.34 7.9.82.54.25 1.02.63 1.51.98.1.06.16.28.1.36-.44.74-.9 1.47-1.4 2.25l-.48-.34a7.6 7.6 0 0 0-7.07-1.03 5.7 5.7 0 0 0-4.05 5.19 5.6 5.6 0 0 0 1.22 4.16 6.47 6.47 0 0 0 4.67 2.35c2.24.2 4.15-.48 5.76-1.93l.28-.24"/><path id="szs5h" d="M734 133.97v-13.46c0-.5 0-.5.47-.5l2.21-.01c.25 0 .34.1.32.34v27.16c0 .5 0 .5-.48.5-.7 0-1.42-.02-2.14 0-.3 0-.38-.08-.38-.41v-13.62"/><path id="szs5i" d="M750 147.97l-.41.03-3.85-.01a.85.85 0 0 1-.56-.24l-8.02-8.84c-.22-.24-.22-.39.01-.64l7.27-8c.11-.13.31-.25.47-.26 1.27-.02 2.54 0 3.81 0l.23.04c-.23.25-.42.47-.62.67l-7.03 7.33c-.21.22-.23.37 0 .6l6.16 6.59 2.54 2.73"/><path id="szs5j" d="M710.05 125c-1.24 0-2.05-.61-2.05-1.56 0-.84.84-1.44 2-1.44 1.18 0 2 .59 2 1.44 0 .94-.78 1.56-1.95 1.56"/><clipPath id="szs5b"><use xlink:href="#szs5a"/></clipPath></defs><g><g transform="translate(-653 -119)"><g><g/><g clip-path="url(#szs5b)"><use xlink:href="#szs5c"/></g></g><g><use xlink:href="#szs5d"/></g><g><use xlink:href="#szs5e"/></g><g><use xlink:href="#szs5f"/></g><g><use xlink:href="#szs5g"/></g><g><use xlink:href="#szs5h"/></g><g><use xlink:href="#szs5i"/></g><g><use xlink:href="#szs5j"/></g></g></g></svg>