<svg xmlns="http://www.w3.org/2000/svg" xmlns:xlink="http://www.w3.org/1999/xlink" fill="#fff"><defs><path id="a" d="M57.02 635h8.96v18h-8.96z"/><path id="d" d="M63.5 637.34h-6.08c-.31 0-.4-.08-.4-.38v-1.57c0-.3.08-.39.4-.39h8.15c.31 0 .41.1.41.4a573031.77 573031.77 0 0 1 0 17.22c0 .28-.1.38-.4.38h-8.12c-.37 0-.44-.07-.44-.42v-1.52c0-.33.08-.4.42-.4h6.07z"/><path id="b" d="M48 639.03h13.97v10.94H48z"/><path id="f" d="M53 645.9l.15.12 1.9 1.9c.2.2.2.38.01.57l-1.33 1.33c-.2.2-.37.2-.56 0l-5.03-5.02c-.19-.2-.19-.41 0-.6l5.02-5.02c.2-.2.38-.2.58 0l1.32 1.32c.2.2.19.38-.01.58l-1.9 1.9-.16.17h8.5c.37 0 .48.11.48.5v1.73c0 .34-.12.46-.45.46h-8.5l-.03.06"/><clipPath id="c"><use xlink:href="#a"/></clipPath><clipPath id="e"><use xlink:href="#b"/></clipPath></defs><g clip-path="url(#c)" transform="translate(-48 -635)"><use xlink:href="#d"/></g><g clip-path="url(#e)" transform="translate(-48 -635)"><use xlink:href="#f"/></g></svg>